Normalized EMG Linear Envelopes
nRows=214
nColumns=4

endheader
time	 med_gas_r	  soleus_r	 tib_ant_r	
2.0291	  0.094652	  0.124051	  0.012220	
2.06237	  0.093207	  0.122525	  0.012334	
2.09563	  0.092739	  0.119783	  0.012382	
2.1289	  0.093239	  0.116290	  0.012357	
2.16216	  0.094534	  0.112574	  0.012288	
2.19542	  0.096301	  0.108991	  0.012169	
2.22869	  0.098120	  0.105762	  0.011958	
2.26195	  0.099131	  0.103229	  0.011682	
2.29522	  0.098633	  0.101868	  0.011405	
2.32848	  0.097263	  0.101724	  0.011174	
2.36174	  0.095637	  0.102433	  0.011010	
2.39501	  0.094049	  0.103822	  0.010937	
2.42827	  0.092763	  0.106027	  0.010980	
2.46154	  0.092082	  0.109504	  0.011133	
2.4948	  0.092514	  0.114385	  0.011404	
2.52806	  0.094246	  0.120053	  0.011776	
2.56133	  0.096939	  0.125637	  0.012157	
2.59459	  0.099712	  0.130462	  0.012479	
2.62786	  0.101684	  0.133868	  0.012702	
2.66112	  0.102574	  0.135441	  0.012800	
2.69438	  0.102252	  0.135349	  0.012783	
2.72765	  0.100936	  0.134101	  0.012661	
2.76091	  0.098814	  0.132105	  0.012439	
2.79418	  0.096107	  0.129510	  0.012195	
2.82744	  0.093334	  0.126461	  0.011992	
2.8607	  0.090801	  0.123260	  0.011853	
2.89397	  0.088979	  0.120187	  0.011805	
2.92723	  0.088241	  0.117256	  0.011859	
2.9605	  0.088712	  0.114479	  0.011974	
2.99376	  0.089985	  0.111983	  0.012119	
3.02702	  0.091349	  0.110044	  0.012237	
3.06029	  0.092285	  0.108980	  0.012269	
3.09355	  0.092640	  0.108934	  0.012197	
3.12682	  0.092363	  0.110215	  0.012053	
3.16008	  0.091379	  0.112741	  0.011883	
3.19334	  0.089535	  0.115685	  0.011754	
3.22661	  0.086912	  0.118157	  0.011686	
3.25987	  0.083703	  0.119351	  0.011626	
3.29314	  0.080467	  0.119011	  0.011526	
3.3264	  0.077665	  0.117305	  0.011353	
3.35966	  0.075795	  0.114459	  0.011082	
3.39293	  0.075270	  0.111110	  0.010756	
3.42619	  0.076055	  0.108011	  0.010457	
3.45946	  0.077911	  0.105673	  0.010228	
3.49272	  0.080671	  0.104352	  0.010098	
3.52598	  0.084175	  0.104052	  0.010091	
3.55925	  0.088156	  0.104600	  0.010201	
3.59251	  0.092328	  0.105698	  0.010372	
3.62578	  0.096245	  0.106705	  0.010548	
3.65904	  0.099366	  0.107207	  0.010708	
3.6923	  0.101469	  0.107285	  0.010847	
3.72557	  0.102364	  0.107095	  0.010978	
3.75883	  0.101798	  0.106716	  0.011120	
3.7921	  0.099526	  0.106373	  0.011280	
3.82536	  0.096037	  0.106378	  0.011438	
3.85862	  0.091955	  0.106898	  0.011565	
3.89189	  0.087840	  0.108007	  0.011649	
3.92515	  0.084265	  0.109922	  0.011729	
3.95842	  0.081562	  0.112644	  0.011809	
3.99168	  0.079727	  0.115848	  0.011856	
4.02494	  0.078538	  0.119242	  0.011886	
4.05821	  0.077777	  0.122688	  0.011937	
4.09147	  0.077461	  0.126058	  0.012015	
4.12474	  0.077880	  0.128880	  0.012124	
4.158	  0.079312	  0.130412	  0.012272	
4.19126	  0.082059	  0.130052	  0.012460	
4.22453	  0.086223	  0.127873	  0.012703	
4.25779	  0.091839	  0.124903	  0.012962	
4.29106	  0.098756	  0.122330	  0.013191	
4.32432	  0.106875	  0.120869	  0.013434	
4.35758	  0.116381	  0.120843	  0.013759	
4.39085	  0.126964	  0.122368	  0.014201	
4.42411	  0.137431	  0.125237	  0.014800	
4.45738	  0.145741	  0.129041	  0.015592	
4.49064	  0.151372	  0.133286	  0.016583	
4.5239	  0.154593	  0.136954	  0.017962	
4.55717	  0.155407	  0.139336	  0.019949	
4.59043	  0.154049	  0.140821	  0.022696	
4.6237	  0.152328	  0.141827	  0.026390	
4.65696	  0.151992	  0.142899	  0.031061	
4.69022	  0.152798	  0.144387	  0.036293	
4.72349	  0.153435	  0.146430	  0.041265	
4.75675	  0.154613	  0.150319	  0.044914	
4.79002	  0.156913	  0.156813	  0.047658	
4.82328	  0.159797	  0.166016	  0.051236	
4.85654	  0.161633	  0.177330	  0.057056	
4.88981	  0.162475	  0.188948	  0.065494	
4.92307	  0.163944	  0.199668	  0.075574	
4.95634	  0.166144	  0.209119	  0.085707	
4.9896	  0.168604	  0.217645	  0.095532	
5.02286	  0.171945	  0.225399	  0.103974	
5.05613	  0.176755	  0.231154	  0.109698	
5.08939	  0.181761	  0.235039	  0.113507	
5.12266	  0.185730	  0.238261	  0.116769	
5.15592	  0.187995	  0.241636	  0.120871	
5.18918	  0.187789	  0.244946	  0.125440	
5.22245	  0.186102	  0.248437	  0.129122	
5.25571	  0.184377	  0.252781	  0.132550	
5.28898	  0.181944	  0.256314	  0.138017	
5.32224	  0.178695	  0.258952	  0.147179	
5.3555	  0.176355	  0.262029	  0.159066	
5.38877	  0.175433	  0.265271	  0.171525	
5.42203	  0.175167	  0.268367	  0.183353	
5.4553	  0.175967	  0.272362	  0.193863	
5.48856	  0.178139	  0.277201	  0.202556	
5.52182	  0.180386	  0.281840	  0.207903	
5.55509	  0.181399	  0.285775	  0.210730	
5.58835	  0.182482	  0.290107	  0.212893	
5.62162	  0.183865	  0.294702	  0.213124	
5.65488	  0.185369	  0.298631	  0.209541	
5.68814	  0.188034	  0.302033	  0.201611	
5.72141	  0.192598	  0.305054	  0.191167	
5.75467	  0.197849	  0.308328	  0.181152	
5.78794	  0.202937	  0.311296	  0.172893	
5.8212	  0.208176	  0.312200	  0.166657	
5.85446	  0.212665	  0.310602	  0.163636	
5.88773	  0.216196	  0.307819	  0.164500	
5.92099	  0.219471	  0.305608	  0.168454	
5.95426	  0.222336	  0.305518	  0.174544	
5.98752	  0.224363	  0.308038	  0.183666	
6.02078	  0.225807	  0.312842	  0.195653	
6.05405	  0.226362	  0.319698	  0.208138	
6.08731	  0.225646	  0.329214	  0.218541	
6.12058	  0.224573	  0.340953	  0.227535	
6.15384	  0.224286	  0.352925	  0.235756	
6.1871	  0.224800	  0.363722	  0.241781	
6.22037	  0.225716	  0.373214	  0.243907	
6.25363	  0.226591	  0.381815	  0.245050	
6.2869	  0.226976	  0.390520	  0.248167	
6.32016	  0.227348	  0.398707	  0.253375	
6.35342	  0.227318	  0.406259	  0.261110	
6.38669	  0.226071	  0.412179	  0.273001	
6.41995	  0.224113	  0.417676	  0.288940	
6.45322	  0.221152	  0.422980	  0.309169	
6.48648	  0.217756	  0.430366	  0.334294	
6.51974	  0.214241	  0.441153	  0.362687	
6.55301	  0.210188	  0.455101	  0.389844	
6.58627	  0.207438	  0.473279	  0.413955	
6.61954	  0.206552	  0.496333	  0.435346	
6.6528	  0.206895	  0.519566	  0.454490	
6.68606	  0.208845	  0.539057	  0.469960	
6.71933	  0.211914	  0.556165	  0.479930	
6.75259	  0.215503	  0.570929	  0.483437	
6.78586	  0.220307	  0.579521	  0.481606	
6.81912	  0.225306	  0.577334	  0.476892	
6.85238	  0.228850	  0.568626	  0.468799	
6.88565	  0.231062	  0.556875	  0.457565	
6.91891	  0.232070	  0.539804	  0.443871	
6.95218	  0.232222	  0.518801	  0.429437	
6.98544	  0.232006	  0.499185	  0.416785	
7.0187	  0.232831	  0.483876	  0.409914	
7.05197	  0.234616	  0.473737	  0.409491	
7.08523	  0.236256	  0.468466	  0.412902	
7.1185	  0.238297	  0.466527	  0.418086	
7.15176	  0.241030	  0.468324	  0.424168	
7.18502	  0.244842	  0.474679	  0.429028	
7.21829	  0.250820	  0.485792	  0.432428	
7.25155	  0.258319	  0.499996	  0.437120	
7.28482	  0.265447	  0.515452	  0.443400	
7.31808	  0.270812	  0.530820	  0.451206	
7.35134	  0.273787	  0.544382	  0.458523	
7.38461	  0.273893	  0.556318	  0.459795	
7.41787	  0.271005	  0.567362	  0.453872	
7.45114	  0.266916	  0.577037	  0.446377	
7.4844	  0.263590	  0.584619	  0.440081	
7.51766	  0.260582	  0.586368	  0.434083	
7.55093	  0.257289	  0.581199	  0.428508	
7.58419	  0.253279	  0.570807	  0.423478	
7.61746	  0.247840	  0.557112	  0.419280	
7.65072	  0.241813	  0.540371	  0.415936	
7.68398	  0.236071	  0.523918	  0.414909	
7.71725	  0.230489	  0.511220	  0.418424	
7.75051	  0.225831	  0.502566	  0.427212	
7.78378	  0.223162	  0.498224	  0.440175	
7.81704	  0.222571	  0.498689	  0.455266	
7.8503	  0.223828	  0.503132	  0.470938	
7.88357	  0.227534	  0.511061	  0.484427	
7.91683	  0.233589	  0.521771	  0.493696	
7.9501	  0.240891	  0.533905	  0.497559	
7.98336	  0.249896	  0.543738	  0.495512	
8.01662	  0.262049	  0.547914	  0.488915	
8.04989	  0.277600	  0.548653	  0.481288	
8.08315	  0.297147	  0.550543	  0.474444	
8.11642	  0.322098	  0.552834	  0.467098	
8.14968	  0.352524	  0.553951	  0.459991	
8.18294	  0.387377	  0.555640	  0.454624	
8.21621	  0.424093	  0.560067	  0.450097	
8.24947	  0.455768	  0.567635	  0.446089	
8.28274	  0.480772	  0.575631	  0.443335	
8.316	  0.506093	  0.579653	  0.443779	
8.34926	  0.532280	  0.577927	  0.447323	
8.38253	  0.553753	  0.572511	  0.453712	
8.41579	  0.573278	  0.563988	  0.464358	
8.44906	  0.594868	  0.552482	  0.480591	
8.48232	  0.616532	  0.540792	  0.500675	
8.51558	  0.636773	  0.531347	  0.522788	
8.54885	  0.657991	  0.523477	  0.544745	
8.58211	  0.677858	  0.518353	  0.562767	
8.61538	  0.693385	  0.516517	  0.572261	
8.64864	  0.706013	  0.519490	  0.570442	
8.6819	  0.711119	  0.527781	  0.559747	
8.71517	  0.706598	  0.539679	  0.542556	
8.74843	  0.703194	  0.552763	  0.522001	
8.7817	  0.706684	  0.567466	  0.503605	
8.81496	  0.716525	  0.583099	  0.489509	
8.84822	  0.732215	  0.594058	  0.479184	
8.88149	  0.745281	  0.595620	  0.472053	
8.91475	  0.749295	  0.589700	  0.467259	
8.94802	  0.751629	  0.582443	  0.464710	
8.98128	  0.754895	  0.578755	  0.463503	
9.01454	  0.764851	  0.580092	  0.464149	
9.04781	  0.780797	  0.583732	  0.466360	
9.08107	  0.796709	  0.587277	  0.469366	
9.11434	  0.805914	  0.587346	  0.474062	
